<svg xmlns="http://www.w3.org/2000/svg" xmlns:xlink="http://www.w3.org/1999/xlink" viewBox="0 0 40 40"><g clip-path="url(#a)"><path d="M22.567 20a11.333 11.333 0 0 1-11.284 11.367A11.333 11.333 0 0 1 0 20 11.333 11.333 0 0 1 11.283 8.633 11.333 11.333 0 0 1 22.567 20m12.366 0c0 5.9-2.516 10.7-5.633 10.7s-5.65-4.8-5.65-10.7S26.183 9.3 29.3 9.3s5.633 4.8 5.633 10.7M40 20c0 5.283-.883 9.583-1.983 9.583s-1.984-4.3-1.984-9.583.884-9.583 1.984-9.583S40 14.717 40 20"/></g><defs><clipPath id="a"><path fill="#fff" d="M0 0h40v40H0z"/></clipPath></defs></svg>